<?xml version="1.0" standalone="no"?>
<!DOCTYPE svg PUBLIC "-//W3C//DTD SVG 20010904//EN"
 "http://www.w3.org/TR/2001/REC-SVG-20010904/DTD/svg10.dtd">
<svg version="1.0" xmlns="http://www.w3.org/2000/svg"
 width="200.000000pt" height="200.000000pt" viewBox="0 0 200.000000 200.000000"
 preserveAspectRatio="xMidYMid meet">

<g transform="translate(0.000000,200.000000) scale(0.100000,-0.100000)"
fill="#000000" stroke="none">
<path d="M755 599 c-19 -9 -20 -17 -15 -230 4 -181 8 -221 20 -229 18 -11 90
-13 107 -2 16 10 -16 47 -42 47 -19 0 -20 8 -23 213 -3 223 -3 223 -47 201z"/>
<path d="M1803 598 c-20 -10 -23 -19 -23 -75 l0 -63 -47 0 c-75 0 -127 -31
-159 -96 -22 -45 -25 -61 -19 -101 10 -69 38 -109 89 -128 42 -16 46 -16 92 4
42 19 49 20 56 6 5 -8 22 -15 37 -15 28 0 28 1 20 43 -4 23 -8 131 -9 240 0
108 -3 197 -7 196 -5 0 -18 -5 -30 -11z m-25 -294 l3 -101 -37 -18 c-45 -21
-75 -11 -104 37 -51 84 7 193 100 186 l35 -3 3 -101z"/>
<path d="M228 538 l-28 -10 0 -172 c0 -160 2 -175 21 -200 17 -21 29 -26 67
-26 55 0 75 10 70 36 -2 13 -13 18 -43 18 l-40 1 -3 108 -3 107 40 0 c26 0 41
5 45 16 11 29 6 34 -39 34 l-45 0 0 50 c0 53 0 54 -42 38z"/>
<path d="M468 448 c-38 -10 -45 -21 -30 -46 7 -10 15 -10 36 -2 66 25 126 4
126 -44 0 -21 -6 -24 -65 -29 -80 -8 -98 -17 -119 -62 -33 -69 14 -138 94
-138 22 0 51 8 66 18 25 16 28 16 39 1 7 -9 23 -16 36 -16 l24 0 -3 112 c-3
139 -20 192 -64 207 -37 13 -89 13 -140 -1z m132 -202 c0 -41 -2 -45 -37 -59
-45 -18 -71 -12 -85 19 -16 34 3 71 39 77 81 12 83 11 83 -37z"/>
<path d="M971 449 c-60 -24 -98 -120 -79 -198 23 -94 69 -126 174 -119 71 4
86 13 78 44 -5 20 -7 20 -51 6 -43 -14 -49 -14 -82 4 -36 19 -67 66 -56 84 3
6 50 10 106 10 l99 0 0 43 c0 100 -95 164 -189 126z m102 -57 c9 -10 18 -29
19 -43 3 -23 1 -24 -67 -24 -69 0 -70 0 -67 25 5 52 81 80 115 42z"/>
<path d="M1339 447 c-14 -7 -33 -18 -43 -26 -14 -12 -16 -11 -16 8 0 17 -6 21
-30 21 l-31 0 3 -157 3 -158 30 0 30 0 3 117 c2 112 4 119 27 134 29 19 79 21
100 4 12 -10 15 -37 15 -136 l0 -124 36 0 36 0 -4 141 c-3 140 -3 141 -31 165
-31 27 -83 31 -128 11z"/>
</g>
</svg>
